<?xml version="1.0" encoding="UTF-8"?>
<svg width="432px" height="432px" viewBox="0 0 432 432" version="1.1" xmlns="http://www.w3.org/2000/svg" xmlns:xlink="http://www.w3.org/1999/xlink">
    <!-- Generator: Sketch 42 (36781) - http://www.bohemiancoding.com/sketch -->
    <title>Combined Shape</title>
    <desc>Created with Sketch.</desc>
    <defs></defs>
    <g id="Identidad-ActualidadBlog-2017" stroke="none" stroke-width="1" fill="none" fill-rule="evenodd">
        <g id="LasRecetasCocina-Copy-2" transform="translate(-40.000000, -40.000000)" fill="#9B2565">
            <path d="M234.835896,434.768912 L238.090122,359.596289 C201.462028,348.105123 187.102913,322.356519 186.379873,306.449646 C183.507082,243.248233 197.871039,119.718199 197.871039,119.718199 L215.107788,119 L215.107789,292.085689 L232.344538,292.085684 L232.344538,119 L248.863089,119 L248.144891,292.085684 L265.381641,292.085689 L265.38164,119 L281.900192,119 L281.900192,292.085689 L298.418742,292.085684 L298.418742,119 L311.346304,119 C311.346304,119 327.146658,243.966431 325.710262,307.886043 C325.236483,328.969215 302.727931,351.696113 271.127224,359.596289 L275.599989,434.945192 C365.791506,425.178515 436,348.788294 436,256 C436,156.588745 355.411255,76 256,76 C156.588745,76 76,156.588745 76,256 C76,348.251219 145.398088,424.293646 234.835896,434.768912 Z M256,472 C136.706494,472 40,375.293506 40,256 C40,136.706494 136.706494,40 256,40 C375.293506,40 472,136.706494 472,256 C472,375.293506 375.293506,472 256,472 Z" id="Combined-Shape"></path>
        </g>
    </g>
</svg>